<svg xmlns="http://www.w3.org/2000/svg" xmlns:xlink="http://www.w3.org/1999/xlink" width="200" zoomAndPan="magnify" viewBox="0 0 150 149.999998" height="200" preserveAspectRatio="xMidYMid meet" version="1.0"><path fill="#1e365c" d="M 75 13.3125 C 49.472656 13.3125 28.777344 34.007812 28.777344 59.53125 C 28.777344 60.21875 28.796875 60.902344 28.824219 61.578125 C 28.824219 61.578125 29.105469 71.632812 31.941406 78.578125 C 35.503906 88.765625 44.78125 107.019531 68.949219 133.613281 C 72.246094 137.242188 77.933594 137.289062 81.289062 133.710938 C 92.46875 121.785156 115.121094 95 120.28125 68.839844 C 120.445312 68.039062 120.589844 67.226562 120.710938 66.410156 C 120.714844 66.394531 120.714844 66.378906 120.71875 66.359375 C 120.792969 65.871094 120.855469 65.394531 120.90625 64.925781 C 121.113281 63.15625 121.21875 61.359375 121.21875 59.53125 C 121.21875 34.007812 100.527344 13.3125 75 13.3125 Z M 53.328125 53.011719 C 53.328125 50.230469 55.585938 47.972656 58.371094 47.972656 C 61.152344 47.972656 63.410156 50.230469 63.410156 53.011719 C 63.410156 55.796875 61.152344 58.054688 58.371094 58.054688 C 55.585938 58.054688 53.328125 55.796875 53.328125 53.011719 Z M 73.292969 95.675781 C 66.988281 95.675781 61.191406 93.507812 56.605469 89.875 L 58.539062 87.109375 C 62.546875 89.980469 67.457031 91.667969 72.765625 91.667969 C 81.746094 91.667969 89.59375 86.835938 93.851562 79.625 L 97.027344 81.449219 C 92.496094 89.914062 83.566406 95.675781 73.292969 95.675781 Z M 99.925781 53.453125 C 93.558594 50.019531 89.28125 53.453125 89.28125 53.453125 L 88.136719 52.160156 C 88.335938 51.410156 89.953125 49.59375 94.480469 49.394531 C 99.59375 49.382812 101.171875 51.925781 101.171875 51.925781 Z M 99.925781 53.453125 " fill-opacity="1" fill-rule="nonzero"/></svg>